<svg id="visual" viewBox="0 0 960 540" width="960" height="540" xmlns="http://www.w3.org/2000/svg" xmlns:xlink="http://www.w3.org/1999/xlink" version="1.1"><rect x="0" y="0" width="960" height="540" fill="#F0F0F0"></rect><defs><linearGradient id="grad1_0" x1="43.8%" y1="100%" x2="100%" y2="0%"><stop offset="14.444444444444446%" stop-color="#f0f0f0" stop-opacity="1"></stop><stop offset="85.55555555555554%" stop-color="#f0f0f0" stop-opacity="1"></stop></linearGradient></defs><defs><linearGradient id="grad2_0" x1="0%" y1="100%" x2="56.3%" y2="0%"><stop offset="14.444444444444446%" stop-color="#f0f0f0" stop-opacity="1"></stop><stop offset="85.55555555555554%" stop-color="#f0f0f0" stop-opacity="1"></stop></linearGradient></defs><g transform="translate(960, 540)"><path d="M-382 0C-386.2 -52.7 -390.4 -105.3 -374.2 -155C-358 -204.6 -321.3 -251.3 -277.2 -277.2C-233 -303.1 -181.4 -308.3 -133.9 -323.4C-86.5 -338.4 -43.2 -363.2 0 -388L0 0Z" fill="#CEE8FA"></path></g><g transform="translate(0, 0)"><path d="M404 0C364.1 42.2 324.2 84.5 300.3 124.4C276.3 164.3 268.4 201.9 248.9 248.9C229.4 295.9 198.4 352.4 155 374.2C111.6 395.9 55.8 383 0 370L0 0Z" fill="#CEE8FA"></path></g></svg>